<svg id="Layer_1" data-name="Layer 1" xmlns="http://www.w3.org/2000/svg" viewBox="0 0 281.1 204.92"><title>hackduke-logo</title><path d="M76.21,98.11V63.6H47.31v34.5H33.91V26.9h13.4V50.5h28.9V26.9h13.4v71.2Z" transform="translate(-33.91 -24.7)"/><path d="M190,96.31a37.93,37.93,0,0,1-11.8-8,34.23,34.23,0,0,1-8-11.9,35.87,35.87,0,0,1-3-14.5,37.22,37.22,0,0,1,54-33.2,36.62,36.62,0,0,1,13.1,11l1.6,2-10.7,7.9-1.5-2a23.59,23.59,0,0,0-19.2-9.6,24,24,0,1,0,19.2,38.4l1.5-1.9,10.6,7.8-1.6,2a36.85,36.85,0,0,1-29.7,14.9A37.87,37.87,0,0,1,190,96.31Z" transform="translate(-33.91 -24.7)"/><path d="M298.31,98.11l-26.5-37.2-11.4,10.8v26.4h-13.3V26.9h13.3V53.6l28.4-26.7H308l-26.1,24.7L315,98.1Z" transform="translate(-33.91 -24.7)"/><path d="M34.44,191.1V119.9h23.9c20.1,0,36.5,16,36.5,35.6s-16.4,35.6-36.5,35.6ZM58.34,178c12.8,0,23.2-10.1,23.2-22.5S71.14,133,58.34,133H47.74v45h10.6Z" transform="translate(-33.91 -24.7)"/><path d="M108.24,164.4V119.9h13.3v44.5a14.4,14.4,0,1,0,28.8,0V119.9h13.4v44.5a27.61,27.61,0,0,1-8.1,19.6,28,28,0,0,1-19.7,8.1A27.7,27.7,0,0,1,108.24,164.4Z" transform="translate(-33.91 -24.7)"/><path d="M231.44,191.1l-26.5-37.2-11.4,10.8v26.4h-13.3V119.9h13.3v26.7l28.4-26.7h19.2L215,144.6l33.1,46.5h-16.7Z" transform="translate(-33.91 -24.7)"/><path d="M258.14,191.1V119.9H305v13h-33.5v10.5h29.2v13.3h-29.2v21.2h32.6v13.2h-46Z" transform="translate(-33.91 -24.7)"/><polygon points="103.7 2.2 91.6 2.2 64.2 73.4 78.5 73.4 85.9 54.2 97.7 23.7 109.5 54.2 116.8 73.4 131.2 73.4 103.7 2.2"/><path d="M49.85,224.6l1.75,1.3a9.21,9.21,0,0,1-7.42,3.73,9.31,9.31,0,1,1,7.45-14.87l-1.77,1.3a7,7,0,0,0-5.67-2.85,7.11,7.11,0,1,0,5.67,11.4Z" transform="translate(-33.91 -24.7)"/><path d="M77,220.33A9.31,9.31,0,1,1,67.72,211,9.31,9.31,0,0,1,77,220.33Zm-2.27,0a7,7,0,1,0-7,7.07A7.1,7.1,0,0,0,74.77,220.33Z" transform="translate(-33.91 -24.7)"/><path d="M84.55,211.55H90.3a8.9,8.9,0,1,1,0,17.79H84.55Zm12.67,8.9a6.85,6.85,0,0,0-6.92-6.72H86.77v13.45H90.3A6.85,6.85,0,0,0,97.22,220.45Z" transform="translate(-33.91 -24.7)"/><path d="M107.13,211.55h11.25v2.15h-9v4.17h7.85v2.23h-7.85v7h8.77v2.2h-11Z" transform="translate(-33.91 -24.7)"/><path d="M136.6,211.55h11.25v2.18h-9v4.17h4.95v2.2h-4.95v9.25H136.6Z" transform="translate(-33.91 -24.7)"/><path d="M172.17,220.33a9.31,9.31,0,1,1-9.32-9.32A9.31,9.31,0,0,1,172.17,220.33Zm-2.27,0a7,7,0,1,0-7,7.07A7.1,7.1,0,0,0,169.9,220.33Z" transform="translate(-33.91 -24.7)"/><path d="M193.74,229.35h-2.57l-6.8-9.35h-2.55v9.35h-2.15v-17.8h6.17a4.27,4.27,0,0,1,4.23,4.23,4.26,4.26,0,0,1-3.2,4.1Zm-11.92-11.5h4a2.07,2.07,0,1,0,0-4.15h-4Z" transform="translate(-33.91 -24.7)"/><path d="M227.47,217.9v7.87a9.48,9.48,0,0,1-7.52,3.85,9.31,9.31,0,0,1,0-18.62,9.22,9.22,0,0,1,6.6,2.75l-1.65,1.45a7,7,0,0,0-4.95-2A7.11,7.11,0,1,0,225.3,225V220.1h-5.22v-2.2h7.4Z" transform="translate(-33.91 -24.7)"/><path d="M253.47,220.33a9.31,9.31,0,1,1-9.32-9.32A9.31,9.31,0,0,1,253.47,220.33Zm-2.28,0a7,7,0,1,0-7,7.07A7.1,7.1,0,0,0,251.19,220.33Z" transform="translate(-33.91 -24.7)"/><path d="M278.82,220.33a9.31,9.31,0,1,1-9.32-9.32A9.31,9.31,0,0,1,278.82,220.33Zm-2.27,0a7,7,0,1,0-7,7.07A7.1,7.1,0,0,0,276.54,220.33Z" transform="translate(-33.91 -24.7)"/><path d="M286.32,211.55h5.75a8.9,8.9,0,1,1,0,17.79h-5.75Zm12.67,8.9a6.85,6.85,0,0,0-6.92-6.72h-3.52v13.45h3.52A6.85,6.85,0,0,0,299,220.45Z" transform="translate(-33.91 -24.7)"/></svg>